<svg width="81" height="20" viewBox="0 0 81 20" fill="none" xmlns="http://www.w3.org/2000/svg">
    <path d="M5.88752 8.20769H5.83319V0.700177H0.5V18.8934H5.83319V11.0033H5.88752L12.7723 18.8927H19.6835L10.786 9.31165L18.9492 0.700177H12.3368L5.88752 8.20769Z" fill="#565A5C"/>
    <path d="M25.8196 0.700889H20.4864V18.8934H25.8196V0.700889Z" fill="#565A5C"/>
    <path d="M58.0132 0.700177V10.2812C58.0132 12.6457 57.8223 15.2283 54.3939 15.2283C50.9655 15.2283 50.7753 12.6464 50.7753 10.2812V0.700177H45.4421V10.9311C45.4421 13.2713 45.5515 15.5886 47.5914 17.3504C49.3074 18.8455 52.0001 19.376 54.3946 19.376C56.7891 19.376 59.484 18.8447 61.1993 17.3504C63.2399 15.5879 63.3486 13.2713 63.3486 10.9311V0.700177H58.0132Z" fill="#565A5C"/>
    <path d="M80.5 1.16564C78.9442 0.570789 77.2943 0.260325 75.6287 0.249023C72.7544 0.251289 69.9788 1.29733 67.818 3.19266C66.876 4.02911 66.1203 5.05431 65.6001 6.20172C65.0799 7.34913 64.8068 8.59311 64.7986 9.8529C64.7698 11.1767 65.0524 12.4887 65.6237 13.6832C66.195 14.8777 67.039 15.9213 68.0876 16.7298C70.2743 18.4743 72.9915 19.4191 75.7888 19.4075C77.3902 19.3521 78.9755 19.068 80.4964 18.5638V12.8931C79.8957 13.5032 79.1799 13.988 78.3905 14.3194C77.6011 14.6507 76.7537 14.8221 75.8975 14.8236C72.5778 14.8236 70.347 12.7501 70.347 9.8772C70.347 7.05438 72.5506 4.83432 75.8153 4.83432C76.6938 4.81029 77.5672 4.97678 78.3752 5.32237C79.1833 5.66796 79.907 6.18445 80.4964 6.83631L80.5 1.16564Z" fill="#565A5C"/>
    <path d="M33.5759 4.10574H33.9949C35.5851 4.10574 37.4162 4.21226 37.4162 6.04838C37.4162 7.75008 35.7953 7.98891 34.2359 7.98891H33.5759V4.10574ZM36.8099 18.8934C40.5643 18.8934 44.2387 17.6393 44.2387 13.8269C44.2387 11.2929 42.9875 9.53188 40.0481 9.1944V9.14576C40.769 8.84397 41.3758 8.32169 41.7816 7.65377C42.1873 6.98586 42.3712 6.20662 42.3068 5.42777C42.3068 1.95358 39.8572 0.698748 36.2121 0.698748H28.5924V18.8919L36.8099 18.8934ZM33.5016 11.1313H34.1014C36.0227 11.1313 38.9327 10.8925 38.9327 13.3135C38.9327 15.5214 35.9919 15.4414 34.2516 15.4414H33.5016V11.1313Z" fill="#565A5C"/>
</svg>