<?xml version="1.0" encoding="UTF-8"?>
<svg xmlns="http://www.w3.org/2000/svg" width="64.265" height="64.24" viewBox="0 0 64.265 64.24">
  <g id="Grupo_1" data-name="Grupo 1" transform="translate(1331.47 1080.866)">
    <path id="Trazado_1" data-name="Trazado 1" d="M-1299-1080.865a32.054,32.054,0,0,0-32.473,32.015,32.064,32.064,0,0,0,32.046,32.223,32.1,32.1,0,0,0,32.219-32.127A32.1,32.1,0,0,0-1299-1080.865Zm13.679,13.14c-.009.146,0,.294,0,.441q0,14.2,0,28.4a16.374,16.374,0,0,1-.788,5.574,10.959,10.959,0,0,1-7.072,6.97,21.719,21.719,0,0,1-9.143.934,20.487,20.487,0,0,1-3.54-.622,14.124,14.124,0,0,1-5.948-3.519c-.161-.149-.335-.28-.147-.55.74-1.064,1.465-2.139,2.193-3.208.314.058.43.294.584.465a10.409,10.409,0,0,0,6.432,3.391,16.955,16.955,0,0,0,6-.111,8.119,8.119,0,0,0,6.608-7.542c.135-1.763.068-3.524.1-5.317-.306-.014-.372.239-.5.388a12.427,12.427,0,0,1-7.734,4.583,12.628,12.628,0,0,1-13.3-6.239,17.424,17.424,0,0,1-2.171-7.486,22.6,22.6,0,0,1,.613-7.508,13.714,13.714,0,0,1,4.837-7.617,12.686,12.686,0,0,1,7.96-2.585,12.26,12.26,0,0,1,9.6,4.477,2.43,2.43,0,0,0,.683.681v-2.035c0-.662.009-1.324,0-1.986,0-.283.107-.387.389-.385q1.987.013,3.974,0C-1285.39-1068.132-1285.3-1067.991-1285.318-1067.725Z" fill="#e8bd67"></path>
    <path id="Trazado_2" data-name="Trazado 2" d="M-1005.666-854.157c-.066,1.837-.021,3.678-.021,5.517,0,1.987-.013,3.973.01,5.959a1.913,1.913,0,0,1-.432,1.281,11.178,11.178,0,0,1-7.229,4.264,8.907,8.907,0,0,1-7.533-2.1,9.811,9.811,0,0,1-3.073-5.166,15.285,15.285,0,0,1,.778-10.484,8.952,8.952,0,0,1,9.875-5.122,11.24,11.24,0,0,1,6.823,3.737A2.851,2.851,0,0,1-1005.666-854.157Z" transform="translate(-284.361 -204.478)" fill="#e8bd67"></path>
  </g>
</svg>
