<?xml version="1.0" encoding="UTF-8"?><svg id="Capa_2" xmlns="http://www.w3.org/2000/svg" viewBox="0 0 113.34 17.82"><g id="Capa_2-2"><path d="M0,17.55V.78h3.57v7.03h7.43V.78h3.57v16.77h-3.57v-7.03H3.57v7.03H0Z" fill="#fff"/><path d="M21.54,17.81c-.79,0-1.53-.14-2.21-.43s-1.23-.71-1.64-1.28-.62-1.27-.62-2.12c0-1.21.44-2.19,1.31-2.92.87-.73,2.16-1.09,3.88-1.09h3.7v-.34c0-.76-.22-1.3-.65-1.61s-1.3-.47-2.61-.47c-1.43,0-2.8.22-4.13.65v-2.47c.58-.23,1.29-.41,2.13-.56.84-.15,1.75-.22,2.74-.22,1.89,0,3.35.38,4.38,1.13,1.03.75,1.55,1.97,1.55,3.63v7.84h-3.1l-.18-1.12c-.49.43-1.1.77-1.83,1.02-.72.24-1.63.36-2.72.36h0ZM22.51,15.49c.79,0,1.48-.13,2.06-.39.58-.26,1.04-.59,1.38-.99v-1.95h-3.62c-1.39,0-2.09.56-2.09,1.69s.76,1.64,2.28,1.64h0Z" fill="#fff"/><path d="M36.67,17.81c-.94,0-1.83-.06-2.67-.19-.85-.13-1.53-.29-2.04-.48v-2.92c.62.24,1.31.43,2.09.56s1.49.2,2.14.2c.88,0,1.5-.05,1.86-.16.36-.1.54-.34.54-.7,0-.42-.28-.72-.83-.91-.56-.19-1.38-.46-2.47-.81-1.15-.38-2.03-.84-2.65-1.38-.62-.54-.93-1.34-.93-2.4,0-1.18.44-2.09,1.31-2.72.87-.63,2.28-.95,4.22-.95.78,0,1.51.06,2.2.17s1.27.25,1.75.4v2.89c-.48-.23-1.02-.39-1.64-.51-.62-.11-1.19-.17-1.72-.17-.76,0-1.36.05-1.81.16-.45.1-.67.33-.67.68,0,.38.24.65.73.81.48.16,1.24.39,2.26.7,1.01.3,1.79.62,2.35.96.56.35.96.76,1.19,1.24.23.48.34,1.07.34,1.78,0,2.5-1.85,3.75-5.55,3.75Z" fill="#fff"/><path d="M44.71,17.55V0h3.57v6.25c.51-.38,1.14-.69,1.88-.94.74-.24,1.54-.36,2.41-.36,1.66,0,2.87.38,3.62,1.15.76.76,1.14,1.94,1.14,3.54v7.91h-3.57v-7.73c0-.83-.17-1.42-.52-1.77-.34-.35-.98-.52-1.92-.52-.55,0-1.1.12-1.65.36-.56.24-1.02.55-1.39.91v8.75h-3.57Z" fill="#fff"/><path d="M59.92,17.55V.78h12.91v3.75h-7.94v2.73h6.96v3.8h-6.96v2.73h7.94v3.75h-12.91Z" fill="#fff"/><path d="M78.67,17.81c-1.53,0-2.63-.32-3.28-.96s-.98-1.65-.98-3.02V0h4.97v13.28c0,.38.08.64.24.77.16.13.41.2.74.2.23,0,.45-.02.67-.05s.43-.09.62-.16v3.25c-.46.17-.9.3-1.34.39s-.98.13-1.65.13h.01Z" fill="#fff"/><path d="M83.2,17.55v-8.77h-1.83l.42-3.57h6.38v12.34h-4.97ZM82.8,3.57V.03h5.37v3.54h-5.37Z" fill="#fff"/><path d="M95.92,17.81c-1.68,0-2.89-.42-3.65-1.25s-1.14-1.96-1.14-3.38v-4.35h-1.64v-3.62h1.64v-2.53l4.97-1.17v3.7h2.88l-.18,3.62h-2.7v3.98c0,.52.13.89.4,1.11.26.22.67.33,1.22.33.51,0,1.03-.09,1.56-.26v3.25c-.94.38-2.05.57-3.36.57h0Z" fill="#fff"/><path d="M107.51,17.81c-1.46,0-2.76-.24-3.88-.72-1.12-.48-1.99-1.19-2.62-2.15-.63-.95-.94-2.13-.94-3.54,0-1.96.56-3.53,1.69-4.7s2.81-1.76,5.05-1.76c2.04,0,3.65.51,4.8,1.54,1.15,1.02,1.73,2.42,1.73,4.19v2.16h-8.7c.23.66.68,1.13,1.35,1.41.67.28,1.58.42,2.72.42.72,0,1.45-.06,2.18-.19s1.32-.28,1.76-.46v2.94c-1.23.57-2.95.86-5.16.86h.02ZM104.65,10.18h4.42v-.44c0-.49-.15-.89-.46-1.2-.31-.31-.85-.47-1.63-.47-.86,0-1.47.18-1.81.53-.34.36-.52.88-.52,1.58h0Z" fill="#fff"/></g></svg>